<mxfile host="Electron" modified="2023-10-10T17:44:53.774Z" agent="Mozilla/5.0 (Windows NT 10.0; Win64; x64) AppleWebKit/537.36 (KHTML, like Gecko) draw.io/22.0.2 Chrome/114.0.5735.289 Electron/25.8.4 Safari/537.36" etag="5vSkI8wW7dLv-ZH_kHG_" version="22.0.2" type="device">
  <diagram id="prtHgNgQTEPvFCAcTncT" name="Page-1">
    <mxGraphModel dx="780" dy="1673" grid="1" gridSize="10" guides="1" tooltips="1" connect="1" arrows="1" fold="1" page="1" pageScale="1" pageWidth="827" pageHeight="1169" math="0" shadow="0">
      <root>
        <mxCell id="0" />
        <mxCell id="1" parent="0" />
        <UserObject label="Yungpunks&lt;br&gt;&lt;i style=&quot;color: gray&quot;&gt;DAO&lt;/i&gt;" name="Tessa Miller" position="CFO" location="Office 1" email="me@example.com" placeholders="1" link="https://www.draw.io" id="dNxyNK7c78bLwvsdeMH5-12">
          <mxCell style="label;image=https://cdn3.iconfinder.com/data/icons/user-avatars-1/512/users-3-128.png;whiteSpace=wrap;html=1;rounded=0;glass=0;treeMoving=1;treeFolding=1;" parent="1" vertex="1">
            <mxGeometry x="299" y="-1140" width="180" height="70" as="geometry" />
          </mxCell>
        </UserObject>
        <mxCell id="dNxyNK7c78bLwvsdeMH5-13" value="" style="endArrow=blockThin;endFill=1;fontSize=11;edgeStyle=elbowEdgeStyle;elbow=vertical;rounded=0;" parent="1" source="dNxyNK7c78bLwvsdeMH5-12" target="dNxyNK7c78bLwvsdeMH5-14" edge="1">
          <mxGeometry relative="1" as="geometry" />
        </mxCell>
        <UserObject label="Social Council&lt;br&gt;3&amp;nbsp;Members" name="Edward Morrison" position="Brand Manager" location="Office 2" email="me@example.com" placeholders="1" link="https://www.draw.io" id="dNxyNK7c78bLwvsdeMH5-14">
          <mxCell style="label;image=https://cdn3.iconfinder.com/data/icons/user-avatars-1/512/users-10-3-128.png;whiteSpace=wrap;html=1;rounded=0;glass=0;treeFolding=1;treeMoving=1;" parent="1" vertex="1">
            <mxGeometry x="70" y="-1020" width="180" height="80" as="geometry" />
          </mxCell>
        </UserObject>
        <mxCell id="dNxyNK7c78bLwvsdeMH5-15" value="" style="endArrow=blockThin;endFill=1;fontSize=11;edgeStyle=elbowEdgeStyle;elbow=vertical;rounded=0;" parent="1" source="dNxyNK7c78bLwvsdeMH5-12" target="DKr8gTBNJ8NyuyEvkd_J-10" edge="1">
          <mxGeometry relative="1" as="geometry" />
        </mxCell>
        <mxCell id="dNxyNK7c78bLwvsdeMH5-17" value="" style="endArrow=blockThin;endFill=1;fontSize=11;edgeStyle=elbowEdgeStyle;elbow=vertical;rounded=0;" parent="1" source="dNxyNK7c78bLwvsdeMH5-12" target="dNxyNK7c78bLwvsdeMH5-18" edge="1">
          <mxGeometry relative="1" as="geometry" />
        </mxCell>
        <UserObject label="Security Council&lt;br&gt;3 Members" name="Alison Donovan" position="System Admin" location="Office 3" email="me@example.com" placeholders="1" link="https://www.draw.io" id="dNxyNK7c78bLwvsdeMH5-18">
          <mxCell style="label;image=https://cdn3.iconfinder.com/data/icons/user-avatars-1/512/users-2-128.png;whiteSpace=wrap;html=1;rounded=0;glass=0;" parent="1" vertex="1">
            <mxGeometry x="520" y="-1020" width="180" height="80" as="geometry" />
          </mxCell>
        </UserObject>
        <mxCell id="DKr8gTBNJ8NyuyEvkd_J-3" value="" style="endArrow=blockThin;endFill=1;fontSize=11;edgeStyle=elbowEdgeStyle;elbow=vertical;rounded=0;" parent="1" source="dNxyNK7c78bLwvsdeMH5-14" target="DKr8gTBNJ8NyuyEvkd_J-4" edge="1">
          <mxGeometry relative="1" as="geometry">
            <mxPoint x="420" y="-1000" as="sourcePoint" />
          </mxGeometry>
        </mxCell>
        <mxCell id="FwFwObhmsalRDFUH2zkT-15" value="" style="edgeStyle=orthogonalEdgeStyle;rounded=0;orthogonalLoop=1;jettySize=auto;html=1;entryX=1;entryY=0.5;entryDx=0;entryDy=0;" edge="1" parent="1" source="DKr8gTBNJ8NyuyEvkd_J-4" target="dNxyNK7c78bLwvsdeMH5-14">
          <mxGeometry relative="1" as="geometry">
            <Array as="points">
              <mxPoint x="270" y="-850" />
              <mxPoint x="270" y="-980" />
            </Array>
          </mxGeometry>
        </mxCell>
        <UserObject label="Social Workgroup" name="Edward Morrison" position="Brand Manager" location="Office 2" email="me@example.com" placeholders="1" link="https://www.draw.io" id="DKr8gTBNJ8NyuyEvkd_J-4">
          <mxCell style="label;image=https://cdn3.iconfinder.com/data/icons/user-avatars-1/512/users-10-3-128.png;whiteSpace=wrap;html=1;rounded=0;glass=0;treeFolding=1;treeMoving=1;" parent="1" vertex="1">
            <mxGeometry x="70" y="-900" width="180" height="80" as="geometry" />
          </mxCell>
        </UserObject>
        <UserObject label="Buidl Council&lt;br&gt;3 members" name="Evan Valet" position="HR Director" location="Office 4" email="me@example.com" placeholders="1" link="https://www.draw.io" id="DKr8gTBNJ8NyuyEvkd_J-10">
          <mxCell style="label;image=https://cdn3.iconfinder.com/data/icons/user-avatars-1/512/users-9-2-128.png;whiteSpace=wrap;html=1;rounded=0;glass=0;treeFolding=1;treeMoving=1;" parent="1" vertex="1">
            <mxGeometry x="290" y="-1020" width="180" height="80" as="geometry" />
          </mxCell>
        </UserObject>
        <mxCell id="DKr8gTBNJ8NyuyEvkd_J-11" value="" style="endArrow=blockThin;endFill=1;fontSize=11;edgeStyle=elbowEdgeStyle;elbow=vertical;rounded=0;" parent="1" source="DKr8gTBNJ8NyuyEvkd_J-10" target="DKr8gTBNJ8NyuyEvkd_J-12" edge="1">
          <mxGeometry relative="1" as="geometry">
            <mxPoint x="420" y="-1000" as="sourcePoint" />
          </mxGeometry>
        </mxCell>
        <mxCell id="FwFwObhmsalRDFUH2zkT-14" value="" style="edgeStyle=orthogonalEdgeStyle;rounded=0;orthogonalLoop=1;jettySize=auto;html=1;entryX=1;entryY=0.5;entryDx=0;entryDy=0;" edge="1" parent="1" source="DKr8gTBNJ8NyuyEvkd_J-12" target="DKr8gTBNJ8NyuyEvkd_J-10">
          <mxGeometry relative="1" as="geometry">
            <Array as="points">
              <mxPoint x="490" y="-850" />
              <mxPoint x="490" y="-980" />
            </Array>
          </mxGeometry>
        </mxCell>
        <UserObject label="Social Workgroup" name="Evan Valet" position="HR Director" location="Office 4" email="me@example.com" placeholders="1" link="https://www.draw.io" id="DKr8gTBNJ8NyuyEvkd_J-12">
          <mxCell style="label;image=https://cdn3.iconfinder.com/data/icons/user-avatars-1/512/users-9-2-128.png;whiteSpace=wrap;html=1;rounded=0;glass=0;treeFolding=1;treeMoving=1;" parent="1" vertex="1">
            <mxGeometry x="290" y="-900" width="180" height="80" as="geometry" />
          </mxCell>
        </UserObject>
        <mxCell id="DKr8gTBNJ8NyuyEvkd_J-13" value="" style="endArrow=blockThin;endFill=1;fontSize=11;edgeStyle=elbowEdgeStyle;elbow=vertical;rounded=0;" parent="1" source="dNxyNK7c78bLwvsdeMH5-18" target="DKr8gTBNJ8NyuyEvkd_J-14" edge="1">
          <mxGeometry relative="1" as="geometry">
            <mxPoint x="420" y="-1000" as="sourcePoint" />
          </mxGeometry>
        </mxCell>
        <mxCell id="FwFwObhmsalRDFUH2zkT-11" value="" style="edgeStyle=orthogonalEdgeStyle;rounded=0;orthogonalLoop=1;jettySize=auto;html=1;entryX=0.5;entryY=1;entryDx=0;entryDy=0;" edge="1" parent="1" source="DKr8gTBNJ8NyuyEvkd_J-14" target="FwFwObhmsalRDFUH2zkT-10">
          <mxGeometry relative="1" as="geometry">
            <Array as="points">
              <mxPoint x="740" y="-860" />
            </Array>
          </mxGeometry>
        </mxCell>
        <UserObject label="Watchdog Workgroup" name="Alison Donovan" position="System Admin" location="Office 3" email="me@example.com" placeholders="1" link="https://www.draw.io" id="DKr8gTBNJ8NyuyEvkd_J-14">
          <mxCell style="label;image=https://cdn3.iconfinder.com/data/icons/user-avatars-1/512/users-2-128.png;whiteSpace=wrap;html=1;rounded=0;glass=0;" parent="1" vertex="1">
            <mxGeometry x="520" y="-900" width="180" height="80" as="geometry" />
          </mxCell>
        </UserObject>
        <mxCell id="FwFwObhmsalRDFUH2zkT-5" value="" style="shape=waypoint;sketch=0;size=6;pointerEvents=1;points=[];fillColor=default;resizable=0;rotatable=0;perimeter=centerPerimeter;snapToPoint=1;align=left;fontStyle=1;spacing=2;spacingLeft=52;rounded=0;glass=0;" vertex="1" parent="1">
          <mxGeometry x="690" y="-990" width="20" height="20" as="geometry" />
        </mxCell>
        <mxCell id="FwFwObhmsalRDFUH2zkT-12" value="" style="edgeStyle=orthogonalEdgeStyle;rounded=0;orthogonalLoop=1;jettySize=auto;html=1;exitX=0.5;exitY=0;exitDx=0;exitDy=0;" edge="1" parent="1" source="FwFwObhmsalRDFUH2zkT-10" target="FwFwObhmsalRDFUH2zkT-5">
          <mxGeometry relative="1" as="geometry">
            <Array as="points">
              <mxPoint x="740" y="-980" />
            </Array>
          </mxGeometry>
        </mxCell>
        <mxCell id="FwFwObhmsalRDFUH2zkT-10" value="" style="ellipse;whiteSpace=wrap;html=1;align=left;fontStyle=1;spacing=2;spacingLeft=52;rounded=0;glass=0;" vertex="1" parent="1">
          <mxGeometry x="715" y="-950" width="50" height="50" as="geometry" />
        </mxCell>
        <mxCell id="FwFwObhmsalRDFUH2zkT-13" value="votes&lt;br&gt;in" style="text;html=1;strokeColor=none;fillColor=none;align=center;verticalAlign=middle;whiteSpace=wrap;rounded=0;" vertex="1" parent="1">
          <mxGeometry x="710" y="-940" width="60" height="30" as="geometry" />
        </mxCell>
      </root>
    </mxGraphModel>
  </diagram>
</mxfile>
